Coordinates
version=1
nRows=19
nColumns=36
inDegrees=yes

Units are S.I. units (second, meters, Newtons, ...)
If the header above contains a line with 'inDegrees', this indicates whether rotational values are in degrees (yes) or radians (no).

endheader
time	pelvis_tilt	pelvis_list	pelvis_rotation	pelvis_tx	pelvis_ty	pelvis_tz	hip_flexion_r	hip_adduction_r	hip_rotation_r	knee_angle_r	knee_angle_r_beta	ankle_angle_r	subtalar_angle_r	mtp_angle_r	hip_flexion_l	hip_adduction_l	hip_rotation_l	knee_angle_l	knee_angle_l_beta	ankle_angle_l	subtalar_angle_l	mtp_angle_l	lumbar_extension	lumbar_bending	lumbar_rotation	arm_flex_r	arm_add_r	arm_rot_r	elbow_flex_r	pro_sup_r	arm_flex_l	arm_add_l	arm_rot_l	elbow_flex_l	pro_sup_l
      1.02000000	     -3.49199532	      1.86062584	      1.54176808	      1.11732505	      1.03349641	     -0.30015317	     26.45605161	     -2.62247300	    -13.40842569	      2.25338822	      0.03932904	     -4.60649161	     10.38233618	     -7.16396911	     -7.05774237	      4.66890648	    -10.00458761	      0.66519644	      0.01160987	     11.04766107	      8.48228821	     -7.16396911	    -14.73436223	    -10.87172575	    -11.15105744	    -16.47331216	     -4.11278414	    -14.98864672	     40.23009723	    107.83770161	      4.75122862	    -20.09449494	    -23.85403834	     62.39414444	     94.84296738
      1.03000000	     -3.19364190	      2.21854358	      1.39756656	      1.12925928	      1.03054780	     -0.30099887	     26.29315854	     -2.86383093	    -13.77803516	      0.95168300	      0.01661000	     -3.81314520	     12.23063332	     -7.17597179	     -8.17960051	      5.15636630	     -9.12291773	      0.67408321	      0.01176497	     11.42466500	      6.96564266	     -7.17597179	    -14.84761806	    -10.75739250	    -10.96604812	    -16.54255708	     -3.93367308	    -15.84091949	     39.34480796	    108.01705214	      5.77355425	    -21.01157399	    -22.63091341	     62.17473344	     95.11577388
      1.04000000	     -3.10718865	      2.65617710	      1.17916965	      1.14112103	      1.02736789	     -0.30158037	     26.59613991	     -3.21137326	    -13.99450881	      0.52625755	      0.00918493	     -2.31419564	     13.89926477	     -7.18432382	     -8.98515472	      5.69138719	     -8.48852417	      0.83525324	      0.01457792	     11.94815497	      6.04259650	     -7.18432382	    -14.73632392	    -10.79260189	    -10.93424018	    -16.54221127	     -3.84148067	    -16.28569224	     38.59263017	    108.11317214	      6.49258582	    -21.78027188	    -22.06142997	     62.27758620	     95.30701553
      1.05000000	     -2.88593543	      3.04378210	      0.99409974	      1.15315705	      1.02457669	     -0.30203323	     26.70768585	     -3.52627183	    -14.17698057	      0.39743331	      0.00693652	     -0.97873646	     15.37063697	     -7.19509420	     -9.91740339	      6.13816491	     -7.74710222	      1.03223469	      0.01801589	     12.25928354	      5.07120824	     -7.19509420	    -14.77686803	    -10.78974997	    -10.91528442	    -16.49744076	     -3.77307226	    -16.61073315	     37.84528678	    108.28653801	      7.23148168	    -22.51661475	    -21.49123658	     62.25679671	     95.54575927
      1.06000000	     -2.63576749	      3.31069475	      0.80040869	      1.16529171	      1.02206905	     -0.30213292	     26.62350683	     -3.65628751	    -13.60322917	      0.34726919	      0.00606099	     -0.10659443	     15.59263672	     -7.19735958	    -10.74038307	      6.38977578	     -7.43417297	      1.49757856	      0.02613768	     12.78208640	      4.72769937	     -7.19735958	    -14.86447465	    -10.70174378	    -11.00370993	    -16.40916419	     -3.73450339	    -16.72179320	     37.31118976	    108.25524627	      7.74693686	    -23.13934684	    -21.39123131	     62.45397420	     95.60207063
      1.07000000	     -2.28451662	      3.36641796	      0.63654094	      1.17785586	      1.02005702	     -0.30198033	     26.25550099	     -3.55250760	    -13.00543837	      0.36574985	      0.00638354	      0.50595681	     15.33652704	     -7.20353581	    -11.66908545	      6.38359644	     -7.16312079	      1.97829625	      0.03452778	     13.08964732	      4.26048203	     -7.20353581	    -14.99999915	    -10.44601898	    -10.97851165	    -16.15537283	     -3.69877589	    -16.83335395	     36.23674381	    108.31203630	      8.24182625	    -23.80181277	    -20.88041974	     62.50133539	     95.77535237
      1.08000000	     -1.94077442	      3.35399076	      0.55870399	      1.19056070	      1.01842485	     -0.30176016	     25.74495311	     -3.41539695	    -12.22505061	      0.42058820	      0.00734065	      0.35568447	     14.94132464	     -7.20581688	    -12.44395228	      6.24967934	     -7.07430031	      2.75049073	      0.04800512	     13.35368731	      3.99567939	     -7.20581688	    -15.15367015	    -10.11518850	    -11.10377954	    -16.01679415	     -3.65043493	    -16.87380201	     35.74417012	    108.29432855	      8.59673394	    -24.29973709	    -20.79123601	     62.54632608	     95.82613149
      1.09000000	     -1.47231384	      3.12778848	      0.38481272	      1.20356970	      1.01728275	     -0.30108774	     24.97145023	     -2.93669357	    -10.88673893	      0.49908427	      0.00871066	     -0.74896490	     12.76186435	     -7.21156762	    -13.29823002	      5.86382148	     -7.47388370	      3.62490964	      0.06326661	     13.71066757	      4.03044098	     -7.21156762	    -15.40976777	     -9.63142693	    -11.01007691	    -15.70030488	     -3.64613738	    -16.87347352	     34.68811885	    108.34273864	      8.89377434	    -24.80388191	    -20.47709093	     62.60200658	     95.99905584
      1.10000000	     -1.10263319	      2.90027041	      0.29489721	      1.21679218	      1.01643154	     -0.30039966	     24.22205050	     -2.52093868	     -9.91230621	      0.60964817	      0.01064037	     -2.25266055	     11.47891828	     -7.21526664	    -13.91006357	      5.42944917	     -7.92996666	      4.78873657	      0.08357922	     13.83135778	      3.99817685	     -7.21526664	    -15.54802301	     -9.15671986	    -11.06927786	    -15.50087775	     -3.60277999	    -16.85361676	     34.22019971	    108.35681924	      9.03955030	    -25.15965397	    -20.44358906	     62.58708196	     96.08758587
      1.11000000	     -0.95315369	      2.55849944	      0.11224715	      1.23024920	      1.01559665	     -0.29922794	     23.63909450	     -1.86771738	     -8.19352102	      0.74428270	      0.01299018	     -4.39797202	      8.60727479	     -7.22549205	    -14.21995310	      4.80990545	     -8.86986361	      6.08215873	      0.10615370	     14.17647672	      5.17602130	     -7.22549205	    -15.39378444	     -8.65298407	    -10.94473149	    -15.33546853	     -3.59488206	    -16.70513105	     33.64100194	    108.50261663	      9.00819591	    -25.40007054	    -20.53716699	     62.71270941	     96.37690713
      1.12000000	     -0.67774504	      2.20800426	      0.12501119	      1.24411636	      1.01541512	     -0.29832497	     22.88472686	     -1.37258388	     -7.95666550	      0.96405838	      0.01682599	     -5.96161222	      8.25099336	     -7.22859219	    -14.60564136	      4.17147642	     -9.29872423	      7.49097067	      0.13074210	     13.85606649	      4.92845222	     -7.22859219	    -15.39664198	     -8.09498463	    -10.97483634	    -15.25674639	     -3.52454142	    -16.72285210	     33.42105075	    108.46177106	      8.91876017	    -25.54938295	    -20.59528326	     62.74569055	     96.42663393
      1.13000000	     -0.47237957	      1.80803725	      0.10391765	      1.25827853	      1.01548542	     -0.29711089	     22.11682977	     -0.77295235	     -7.65740826	      1.09116583	      0.01904444	     -7.70956792	      7.47782307	     -7.23208973	    -14.84518372	      3.45131588	     -9.78830185	      9.03330680	      0.15766095	     13.43897170	      4.84141252	     -7.23208973	    -15.28627235	     -7.54100418	    -10.95495592	    -15.18720552	     -3.45396920	    -16.73676033	     33.23116545	    108.45598261	      8.67545239	    -25.60894205	    -20.73343987	     62.83211871	     96.49982634
      1.14000000	     -0.41073808	      1.40942474	      0.04017711	      1.27265012	      1.01568233	     -0.29550956	     21.38323670	     -0.10864974	     -6.89483691	      1.07987551	      0.01884738	     -9.56063480	      5.95034905	     -7.24036341	    -14.82366768	      2.68509682	    -10.32666213	     10.78127655	      0.18816877	     13.15336147	      5.24044185	     -7.24036341	    -15.00678293	     -7.04419723	    -10.96080493	    -15.11800314	     -3.36658618	    -16.66299799	     33.11068390	    108.63102345	      8.16455963	    -25.57731926	    -21.20595104	     63.10762428	     96.74200806
      1.15000000	     -0.28004190	      1.00608013	      0.11488827	      1.28731271	      1.01638873	     -0.29396370	     20.54604168	      0.45340821	     -6.98232870	      1.13878252	      0.01987550	    -10.44494818	      5.95956072	     -7.24334286	    -14.72043232	      1.89310832	    -10.51379496	     12.76886463	      0.22285873	     12.19216538	      4.59926061	     -7.24334286	    -14.78364753	     -6.55750876	    -10.92373252	    -15.13880729	     -3.25503604	    -16.60446562	     33.15062586	    108.63074920	      7.78376939	    -25.47243441	    -21.31383517	     63.14349459	     96.78774405
      1.16000000	     -0.22010324	      0.55482046	      0.16606810	      1.30209577	      1.01730204	     -0.29218127	     19.74457127	      1.07367091	     -7.07367221	      1.18653633	      0.02070897	    -11.35716559	      5.76016568	     -7.24721571	    -14.37024292	      1.04257265	    -10.57870178	     15.02748134	      0.26227903	     11.07863805	      3.66222285	     -7.24721571	    -14.48516028	     -6.04963102	    -10.85962715	    -15.17635415	     -3.17809535	    -16.52791456	     33.26782883	    108.66137383	      7.25497949	    -25.31476906	    -21.57142729	     63.27939134	     96.85655107
      1.17000000	     -0.19487318	      0.10224054	      0.19973403	      1.31695041	      1.01845509	     -0.29019219	     18.92889824	      1.69665307	     -7.16017698	      1.20845120	      0.02109145	    -11.92479608	      5.48568235	     -7.25172555	    -13.75197098	      0.19078164	    -10.52762053	     17.65325559	      0.30810743	      9.64387017	      2.32685007	     -7.25172555	    -14.14556149	     -5.60026458	    -10.75624857	    -15.18845114	     -3.05444379	    -16.38316631	     33.41859814	    108.70720721	      6.62324277	    -25.02787837	    -21.88574201	     63.45795987	     96.93315198
      1.18000000	     -0.12462119	     -0.38993932	      0.22733461	      1.33185081	      1.01987511	     -0.28798219	     18.04531980	      2.34987522	     -7.24350277	      1.30476930	      0.02277252	    -12.02548048	      5.30554741	     -7.25522322	    -12.95381253	     -0.73597493	    -10.45520932	     20.63263270	      0.36010737	      7.91949004	      0.83109186	     -7.25522322	    -13.86833867	     -5.14312930	    -10.53368378	    -15.21351196	     -2.94085639	    -16.21140019	     33.54015720	    108.72636630	      6.06093984	    -24.69781837	    -22.11513435	     63.61883188	     96.98191994
      1.19000000	     -0.25721750	     -0.81923580	      0.18430624	      1.34641209	      1.02124352	     -0.28574328	     17.41573142	      2.93136272	     -7.12287429	      1.47307085	      0.02570994	    -12.03517701	      4.84260387	     -7.26362166	    -11.66196845	     -1.50658011	    -10.07724329	     23.96831922	      0.41832609	      5.52309971	     -1.79409636	     -7.26362166	    -13.41679344	     -4.77414676	    -10.38189326	    -15.08223898	     -2.90817017	    -15.80584934	     33.64162176	    108.87337047	      5.28975244	    -24.25192666	    -22.63943433	     63.92430354	     97.14810387
      1.20000000	     -0.11312022	     -1.46603997	      0.04541311	      1.36101206	      1.02294636	     -0.28312628	     16.46963217	      3.77073847	     -7.09806874	      1.68708164	      0.02944513	    -11.50168428	      4.80071470	     -7.26756589	    -10.44806301	     -2.62576491	    -10.18467519	     27.68591887	      0.48321044	      3.25617456	     -3.52835771	     -7.26756589	    -13.26398275	     -4.24160031	     -9.85267977	    -14.97687423	     -2.81857707	    -15.53256486	     33.74816113	    108.84816284	      4.76616928	    -23.82027674	    -22.76007330	     64.07856033	     97.18598680
